<svg width="1476" height="342" viewBox="0 0 1476 342" fill="none" xmlns="http://www.w3.org/2000/svg">
<path d="M289 78H88V87L289 86.9552V78Z" fill="#B43856"/>
<path d="M1045 190H88V198L1045 197.96V190Z" fill="#B43856"/>
<path d="M979 134H88V142L979 141.96V134Z" fill="#B43856"/>
<path d="M1115 243H86V252L1115 251.955V243Z" fill="#B43856"/>
<path fill-rule="evenodd" clip-rule="evenodd" d="M1131.71 182.813C1131.71 151.387 1144.2 121.249 1166.42 99.0277C1188.64 76.8066 1218.78 64.3229 1250.2 64.3229C1281.63 64.3229 1311.77 76.8066 1333.99 99.0277C1356.21 121.249 1368.69 151.387 1368.69 182.813C1368.69 214.238 1356.21 244.376 1333.99 266.597C1311.77 288.818 1281.63 301.302 1250.2 301.302C1218.78 301.302 1188.64 288.818 1166.42 266.597C1144.2 244.376 1131.71 214.238 1131.71 182.813ZM1267.13 165.885H1233.27V199.74H1267.13V165.885Z" fill="#F6F1E4"/>
<path fill-rule="evenodd" clip-rule="evenodd" d="M1348.38 10.1562H1422.86V91.4063H1399.16V156.623L1324.87 201.189L1310.94 177.978L1372.08 141.28V91.4063H1348.38V10.1562Z" fill="#B43856"/>
<path d="M1272.28 182.895C1272.5 170.742 1262.83 160.714 1250.68 160.496C1238.53 160.278 1228.5 169.952 1228.29 182.105C1228.07 194.258 1237.74 204.286 1249.89 204.504C1262.04 204.722 1272.06 195.048 1272.28 182.895Z" fill="#B5B2A2"/>
<path d="M1307.49 224.86L1297.28 233.615C1283.87 245.112 1266.72 251.287 1249.06 250.97C1231.4 250.653 1214.48 243.866 1201.49 231.895L1191.61 222.779L1209.84 203.009L1219.73 212.125C1227.87 219.629 1238.48 223.884 1249.55 224.083C1260.62 224.282 1271.37 220.411 1279.78 213.203L1289.99 204.448L1307.49 224.86ZM1308.97 142.221L1290.75 162.004L1280.86 152.887C1272.72 145.383 1262.11 141.128 1251.04 140.929C1239.97 140.731 1229.21 144.602 1220.81 151.809L1210.61 160.565L1193.09 140.153L1203.3 131.397C1216.7 119.901 1233.86 113.725 1251.52 114.042C1269.17 114.359 1286.1 121.147 1299.08 133.117L1308.97 142.221Z" fill="#B5B2A2"/>
<path d="M1338.08 256.078L1328.1 265.07C1306.24 284.796 1277.7 295.477 1248.26 294.948C1218.83 294.42 1190.69 282.721 1169.55 262.223L1159.89 252.878L1178.61 233.563L1188.26 242.908C1204.51 258.658 1226.13 267.647 1248.75 268.053C1271.37 268.459 1293.3 260.253 1310.09 245.096L1320.08 236.104L1338.08 256.078ZM1340.67 112.121L1321.98 131.437L1312.33 122.092C1296.09 106.342 1274.47 97.3534 1251.84 96.9472C1229.22 96.5411 1207.29 104.748 1190.5 119.905L1180.52 128.897L1162.53 108.923L1172.52 99.9306C1194.38 80.2046 1222.92 69.5242 1252.36 70.0528C1281.8 70.5814 1309.94 82.2795 1331.07 102.778L1340.67 112.121Z" fill="#B5B2A2"/>
<path d="M140.833 123.167V85.25L164.667 61.3083C173.333 52.75 174.958 39.1 168.892 28.4833C166.577 24.3637 163.212 20.9305 159.14 18.5329C155.068 16.1353 150.434 14.8589 145.708 14.8333C143.433 14.8333 140.833 15.1583 138.775 15.8083C127.075 18.95 119.167 29.7833 119.167 41.9167V77.0167L85.1501 111.358C76.3248 120.371 70.3377 131.774 67.9307 144.156C65.5236 156.538 66.8023 169.354 71.6084 181.017C79.9501 201.6 98.1501 215.792 119.167 219.475V226.083C119.167 228.9 116.675 231.5 113.75 231.5H97.5001V253.167H113.75C128.375 253.167 140.833 241.142 140.833 226.083V220.667C162.825 220.667 185.9 199.867 185.9 169.208C185.9 144.292 165.1 123.167 140.833 123.167ZM140.833 41.9167C140.833 39.425 142.025 37.475 144.3 36.825C146.683 36.175 149.175 37.15 150.367 39.3167C150.98 40.3572 151.227 41.5726 151.07 42.7699C150.913 43.9672 150.36 45.0777 149.5 45.925L140.833 55.2417V41.9167ZM119.167 128.583C108.658 135.517 100.75 147.433 97.9334 158.483L119.167 164.117V197.158C112.956 195.493 107.213 192.417 102.384 188.171C97.5554 183.925 93.771 178.622 91.3251 172.675C84.9334 156.858 88.4001 138.875 100.317 126.742L119.167 106.917V128.583ZM140.833 199V144.183C153.508 144.183 164.45 156.1 164.45 169.208C164.45 188.167 150.692 199 140.833 199Z" fill="#B43856"/>
<g filter="url(#filter0_d_176_57)">
<path d="M326.48 106.8C323.013 106.8 319.733 106.533 316.64 106C313.547 105.413 310.907 104.613 308.72 103.6V91.2C311.12 92.32 313.787 93.2267 316.72 93.92C319.653 94.6133 322.4 94.96 324.96 94.96C327.627 94.96 329.627 94.7467 330.96 94.32C332.347 93.84 333.04 92.8 333.04 91.2C333.04 90.08 332.64 89.2 331.84 88.56C331.093 87.92 329.893 87.3333 328.24 86.8C326.64 86.2667 324.533 85.6 321.92 84.8C318.453 83.68 315.707 82.4533 313.68 81.12C311.653 79.7867 310.187 78.16 309.28 76.24C308.427 74.32 308 71.9733 308 69.2C308 64.1333 309.787 60.2933 313.36 57.68C316.987 55.0133 322.347 53.68 329.44 53.68C332.267 53.68 335.173 53.92 338.16 54.4C341.2 54.88 343.653 55.4133 345.52 56V68.48C343.013 67.4667 340.613 66.7467 338.32 66.32C336.027 65.8933 333.867 65.68 331.84 65.68C329.493 65.68 327.493 65.8667 325.84 66.24C324.187 66.6133 323.36 67.5733 323.36 69.12C323.36 70.4533 324.053 71.44 325.44 72.08C326.88 72.6667 329.413 73.44 333.04 74.4C337.253 75.52 340.453 76.88 342.64 78.48C344.88 80.08 346.4 81.9467 347.2 84.08C348 86.16 348.4 88.5333 348.4 91.2C348.4 95.8933 346.587 99.68 342.96 102.56C339.333 105.387 333.84 106.8 326.48 106.8ZM353.975 106V54.48H380.535C384.748 54.48 388.215 55.3333 390.935 57.04C393.708 58.6933 395.762 60.96 397.095 63.84C398.428 66.72 399.095 69.92 399.095 73.44C399.095 77.0667 398.322 80.2933 396.775 83.12C395.228 85.9467 393.042 88.16 390.215 89.76C387.388 91.36 384.055 92.16 380.215 92.16H369.015V106H353.975ZM369.015 80.64H376.775C379.122 80.64 380.855 79.9733 381.975 78.64C383.148 77.3067 383.735 75.5733 383.735 73.44C383.735 71.1467 383.202 69.3333 382.135 68C381.068 66.6667 379.415 66 377.175 66H369.015V80.64ZM427.836 106.8C419.302 106.8 412.769 104.72 408.236 100.56C403.756 96.4 401.516 89.68 401.516 80.4C401.516 74 402.529 68.8533 404.556 64.96C406.582 61.0133 409.542 58.16 413.436 56.4C417.382 54.5867 422.182 53.68 427.836 53.68C433.489 53.68 438.262 54.5867 442.156 56.4C446.102 58.16 449.089 61.0133 451.116 64.96C453.142 68.8533 454.156 74 454.156 80.4C454.156 89.68 451.889 96.4 447.356 100.56C442.822 104.72 436.316 106.8 427.836 106.8ZM427.836 94C431.676 94 434.449 92.9333 436.156 90.8C437.916 88.6133 438.796 85.1467 438.796 80.4C438.796 75.3333 437.916 71.76 436.156 69.68C434.449 67.5467 431.676 66.48 427.836 66.48C423.996 66.48 421.196 67.5467 419.436 69.68C417.729 71.76 416.876 75.3333 416.876 80.4C416.876 85.1467 417.729 88.6133 419.436 90.8C421.196 92.9333 423.996 94 427.836 94ZM470.255 106V65.68H455.775V54.48H499.775V65.68H485.295V106H470.255ZM503.741 106V54.48H518.781V106H503.741ZM526.006 106V54.48H564.726V65.68H541.046V74.56H561.686V85.92H541.046V106H526.006ZM583.669 106V87.12L565.109 54.48H580.789L591.189 73.92L601.589 54.48H617.269L598.709 87.12V106H583.669ZM664.008 106.8C655.474 106.8 648.941 104.72 644.408 100.56C639.928 96.4 637.688 89.68 637.688 80.4C637.688 74 638.701 68.8533 640.728 64.96C642.754 61.0133 645.714 58.16 649.608 56.4C653.554 54.5867 658.354 53.68 664.008 53.68C669.661 53.68 674.434 54.5867 678.328 56.4C682.274 58.16 685.261 61.0133 687.288 64.96C689.314 68.8533 690.328 74 690.328 80.4C690.328 89.68 688.061 96.4 683.528 100.56C678.994 104.72 672.488 106.8 664.008 106.8ZM664.008 94C667.848 94 670.621 92.9333 672.328 90.8C674.088 88.6133 674.968 85.1467 674.968 80.4C674.968 75.3333 674.088 71.76 672.328 69.68C670.621 67.5467 667.848 66.48 664.008 66.48C660.168 66.48 657.368 67.5467 655.608 69.68C653.901 71.76 653.048 75.3333 653.048 80.4C653.048 85.1467 653.901 88.6133 655.608 90.8C657.368 92.9333 660.168 94 664.008 94ZM695.928 106V54.48H708.728L728.168 81.76V54.48H743.208V106H730.328L710.968 78.8V106H695.928ZM750.381 106V54.48H778.701C783.928 54.48 787.901 55.7067 790.621 58.16C793.341 60.6133 794.701 64.1333 794.701 68.72C794.701 71.3867 794.195 73.6267 793.181 75.44C792.221 77.2533 790.941 78.6933 789.341 79.76C791.528 80.6133 793.261 81.8667 794.541 83.52C795.875 85.12 796.541 87.52 796.541 90.72C796.541 95.5733 795.048 99.3333 792.061 102C789.075 104.667 784.835 106 779.341 106H750.381ZM764.861 75.04H774.621C778.301 75.04 780.141 73.3867 780.141 70.08C780.141 68.4267 779.688 67.1733 778.781 66.32C777.928 65.4667 776.408 65.04 774.221 65.04H764.861V75.04ZM764.861 95.52H775.261C777.288 95.52 778.781 95.0933 779.741 94.24C780.701 93.3867 781.181 91.9733 781.181 90C781.181 88.3467 780.701 87.0933 779.741 86.24C778.781 85.3867 777.181 84.96 774.941 84.96H764.861V95.52ZM826.898 106.8C818.365 106.8 811.831 104.72 807.298 100.56C802.818 96.4 800.578 89.68 800.578 80.4C800.578 74 801.591 68.8533 803.618 64.96C805.645 61.0133 808.605 58.16 812.498 56.4C816.445 54.5867 821.245 53.68 826.898 53.68C832.551 53.68 837.325 54.5867 841.218 56.4C845.165 58.16 848.151 61.0133 850.178 64.96C852.205 68.8533 853.218 74 853.218 80.4C853.218 89.68 850.951 96.4 846.418 100.56C841.885 104.72 835.378 106.8 826.898 106.8ZM826.898 94C830.738 94 833.511 92.9333 835.218 90.8C836.978 88.6133 837.858 85.1467 837.858 80.4C837.858 75.3333 836.978 71.76 835.218 69.68C833.511 67.5467 830.738 66.48 826.898 66.48C823.058 66.48 820.258 67.5467 818.498 69.68C816.791 71.76 815.938 75.3333 815.938 80.4C815.938 85.1467 816.791 88.6133 818.498 90.8C820.258 92.9333 823.058 94 826.898 94ZM852.844 106L872.604 54.48H888.524L908.284 106H892.604L888.284 95.04H872.764L868.524 106H852.844ZM874.764 84.24H886.284L880.524 69.12L874.764 84.24ZM913.897 106V54.48H940.697C944.91 54.48 948.35 55.2533 951.017 56.8C953.737 58.3467 955.764 60.5067 957.097 63.28C958.43 66 959.097 69.1733 959.097 72.8C959.097 76.2667 958.217 79.3333 956.457 82C954.75 84.6133 952.457 86.6133 949.577 88C950.164 88.48 950.67 89.0667 951.097 89.76C951.524 90.4 952.004 91.3067 952.537 92.48L958.457 106H942.777L937.337 93.6C936.91 92.64 936.377 91.9733 935.737 91.6C935.15 91.1733 934.297 90.96 933.177 90.96H928.937V106H913.897ZM928.937 79.44H936.857C939.044 79.44 940.724 78.88 941.897 77.76C943.124 76.5867 943.737 74.9333 943.737 72.8C943.737 68.2667 941.604 66 937.337 66H928.937V79.44ZM964.678 106V54.48H987.718C992.998 54.48 997.505 55.36 1001.24 57.12C1004.97 58.8267 1007.82 61.6 1009.8 65.44C1011.77 69.2267 1012.76 74.2667 1012.76 80.56C1012.76 89.4133 1010.6 95.8667 1006.28 99.92C1001.96 103.973 995.771 106 987.718 106H964.678ZM979.718 94.48H985.798C988.305 94.48 990.411 94.1333 992.118 93.44C993.825 92.6933 995.131 91.3333 996.038 89.36C996.945 87.3333 997.398 84.4 997.398 80.56C997.398 76.72 996.971 73.76 996.118 71.68C995.318 69.5467 994.065 68.08 992.358 67.28C990.651 66.4267 988.465 66 985.798 66H979.718V94.48ZM1018.35 106V54.48H1033.39V106H1018.35ZM1040.62 106V54.48H1053.42L1072.86 81.76V54.48H1087.9V106H1075.02L1055.66 78.8V106H1040.62ZM1121.63 106.8C1112.46 106.8 1105.47 104.56 1100.67 100.08C1095.87 95.5467 1093.47 89.0933 1093.47 80.72C1093.47 72.08 1095.95 65.4133 1100.91 60.72C1105.87 56.0267 1113.12 53.68 1122.67 53.68C1125.87 53.68 1128.75 53.8667 1131.31 54.24C1133.92 54.6133 1136.38 55.1733 1138.67 55.92V68.8C1136.32 67.8933 1133.9 67.28 1131.39 66.96C1128.88 66.64 1126.32 66.48 1123.71 66.48C1118.75 66.48 1115.02 67.6 1112.51 69.84C1110.06 72.08 1108.83 75.7067 1108.83 80.72C1108.83 85.4133 1109.9 88.8 1112.03 90.88C1114.22 92.96 1117.42 94 1121.63 94C1123.02 94 1124.32 93.92 1125.55 93.76C1126.78 93.5467 1127.92 93.28 1128.99 92.96V85.44H1118.75V76.16H1141.55V102.08C1139.58 103.307 1136.94 104.4 1133.63 105.36C1130.38 106.32 1126.38 106.8 1121.63 106.8Z" fill="#FCFCFE"/>
</g>
<defs>
<filter id="filter0_d_176_57" x="304" y="53.68" width="841.549" height="61.12" filterUnits="userSpaceOnUse" color-interpolation-filters="sRGB">
<feFlood flood-opacity="0" result="BackgroundImageFix"/>
<feColorMatrix in="SourceAlpha" type="matrix" values="0 0 0 0 0 0 0 0 0 0 0 0 0 0 0 0 0 0 127 0" result="hardAlpha"/>
<feOffset dy="4"/>
<feGaussianBlur stdDeviation="2"/>
<feComposite in2="hardAlpha" operator="out"/>
<feColorMatrix type="matrix" values="0 0 0 0 0.705882 0 0 0 0 0.219608 0 0 0 0 0.337255 0 0 0 1 0"/>
<feBlend mode="normal" in2="BackgroundImageFix" result="effect1_dropShadow_176_57"/>
<feBlend mode="normal" in="SourceGraphic" in2="effect1_dropShadow_176_57" result="shape"/>
</filter>
</defs>
</svg>
